<svg xmlns="http://www.w3.org/2000/svg" width="430" height="430" style="width:100%;height:100%;transform:translate3d(0,0,0);content-visibility:visible" viewBox="0 0 430 430"><defs><clipPath id="a"><path d="M0 0h430v430H0z"/></clipPath><clipPath id="d"><path d="M0 0h430v430H0z"/></clipPath><clipPath id="c"><path d="M0 0h430v430H0z"/></clipPath><clipPath id="b"><path d="M0 0h430v430H0z"/></clipPath></defs><g fill="none" clip-path="url(#a)"><g clip-path="url(#b)" style="display:none"><path class="primary" style="display:none"/><path class="primary" style="display:none"/><path class="primary" style="display:none"/><path class="primary" style="display:none"/><path class="primary" style="display:none"/><path class="primary" style="display:none"/><g style="display:none"><path class="primary"/><path class="primary"/><path class="primary"/><path class="primary"/></g><path class="secondary" style="display:none"/><g style="display:none"><path class="secondary"/><path class="secondary"/></g></g><g clip-path="url(#c)" style="display:block"><path stroke="#08A88A" stroke-linecap="round" stroke-linejoin="round" stroke-width="12" d="M35.555 31.5h-71.11v-63" class="primary" style="display:block" transform="translate(293.945 323.5)"/><path stroke="#08A88A" stroke-linecap="round" stroke-linejoin="round" stroke-width="12" d="M0 27.5v-55" class="primary" style="display:block" transform="translate(215 347.5)"/><path stroke="#08A88A" stroke-linecap="round" stroke-linejoin="round" stroke-width="12" d="M36.565 31.5h-73.13v-63" class="primary" style="display:block" transform="matrix(-1 0 0 1 137.065 323.5)"/><path class="secondary" style="display:none"/><path stroke="#08A88A" stroke-width="12" d="M0-20c11.038 0 20 8.962 20 20S11.038 20 0 20s-20-8.962-20-20 8.962-20 20-20z" class="primary" style="display:block" transform="translate(350 355)"/><path stroke="#08A88A" stroke-width="12" d="M0-20c11.038 0 20 8.962 20 20S11.038 20 0 20s-20-8.962-20-20 8.962-20 20-20z" class="primary" style="display:block" transform="translate(80 355)"/><path stroke="#08A88A" stroke-width="12" d="M0-20c11.038 0 20 8.962 20 20S11.038 20 0 20s-20-8.962-20-20 8.962-20 20-20z" class="primary" style="display:block" transform="translate(215 395)"/><path stroke="#08A88A" stroke-linecap="round" stroke-linejoin="round" stroke-width="12" d="M265 150v45m-50-15h15c8.284 0 15-6.716 15-15s-6.716-15-15-15h-15v45m-55 0 13.333-45h13.334L200 195m-4.5-15h-31m15.5 0" class="primary" style="display:block"/><path stroke="#121331" stroke-linecap="round" stroke-linejoin="round" stroke-width="11.803" d="M47.779-71.506A86 86 0 0 0 0-86 86.007 86.007 0 0 0-86 0 86 86 0 1 0 47.779-71.506" class="secondary" style="display:block" transform="translate(216 175)"/><path stroke="#121331" stroke-linecap="round" stroke-linejoin="round" stroke-width="12" d="m122.727 21.85 7.575 4.364a19.34 19.34 0 0 1 9.035 11.723 19.26 19.26 0 0 1-1.928 14.662l-23.011 39.756a19.37 19.37 0 0 1-11.766 9.004 19.42 19.42 0 0 1-14.702-1.931l-7.598-4.379a124.5 124.5 0 0 1-37.943 21.889v8.751a19.27 19.27 0 0 1-5.673 13.658A19.4 19.4 0 0 1 23.021 145h-46.023a19.4 19.4 0 0 1-7.412-1.468 19.4 19.4 0 0 1-6.283-4.185 19.3 19.3 0 0 1-5.674-13.658v-8.72A124.5 124.5 0 0 1-80.313 95.08l-7.598 4.379a19.42 19.42 0 0 1-14.703 1.931 19.37 19.37 0 0 1-11.765-9.004l-23.019-39.756a19.28 19.28 0 0 1 1.403-21.431 19.4 19.4 0 0 1 5.688-4.97l7.575-4.363a125.3 125.3 0 0 1 0-43.732l-7.575-4.364a19.295 19.295 0 0 1-9.526-19.259 19.3 19.3 0 0 1 2.435-7.141l23.011-39.756a19.37 19.37 0 0 1 11.765-9.004 19.42 19.42 0 0 1 14.703 1.931l7.598 4.379a124.5 124.5 0 0 1 37.943-21.889v-8.72a19.27 19.27 0 0 1 5.673-13.658A19.4 19.4 0 0 1-23.01-145h46.015a19.4 19.4 0 0 1 7.412 1.468c2.35.97 4.484 2.392 6.283 4.185a19.3 19.3 0 0 1 5.673 13.658V-117a124.5 124.5 0 0 1 37.943 21.889l7.598-4.379a19.42 19.42 0 0 1 14.703-1.931 19.37 19.37 0 0 1 11.765 9.004l23.011 39.772a19.27 19.27 0 0 1-1.403 21.43 19.4 19.4 0 0 1-5.688 4.97l-7.575 4.364a125.3 125.3 0 0 1 0 43.731" class="secondary" style="display:block" transform="rotate(120 57.482 149.854)"/></g><g clip-path="url(#d)" style="display:none"><path class="primary" style="display:none"/><path class="primary" style="display:none"/><path class="primary" style="display:none"/><path class="primary" style="display:none"/><path class="primary" style="display:none"/><path class="primary" style="display:none"/><g style="display:none"><path class="primary"/><path class="primary"/><path class="primary"/><path class="primary"/></g><path class="secondary" style="display:none"/><g style="display:none"><path class="secondary"/><path class="secondary"/></g></g></g></svg>